<svg width="512" height="512" version="1.1" viewBox="0 0 135 135" xmlns="http://www.w3.org/2000/svg"><path d="m60.9 58.9a1.77 1.87 3.09 0 0-2.35 0.923c-1.52 3.46-3.39 4.86-7.32 4.64a1.77 1.87 3.09 0 0-1.87 1.77 1.77 1.87 3.09 0 0 1.66 1.97c5.02 0.278 8.79-2.39 10.7-6.82a1.77 1.87 3.09 0 0-0.854-2.49zm15.2 76.1c7.46-1.04 14.8-3.22 21.2-6.34 18-8.76 31.1-24.7 36.3-44.2 2-7.47 2.48-20.4 1.05-28.4-1.04-5.83-3.42-13.2-5.72-17.7l-1.4-2.77-4.99 9.93 1.44 4.78c1.89 6.27 2.57 10.8 2.57 17.4 0.0221 28.1-20.1 52.4-47.7 57.7-6.48 1.24-20.2 0.774-26.3-0.893-16.5-4.5-30.1-15.9-37.7-31.5-15.3-31.6 0.879-70 34.2-80.9 7.85-2.57 13.6-3.34 21.9-2.91 11 0.565 20.5 3.7 29.5 9.7l4.53 3.03 4.92-1.27c2.7-0.697 4.92-1.45 4.92-1.68 0-0.733-5.74-5.31-10.6-8.44-11.3-7.3-22.6-10.5-36.8-10.5-8.41 8e-3 -13.6 0.84-21.5 3.48-33.2 11-52.6 46.9-43.9 81 5.38 21 20.7 38.1 41.3 46.3 10.1 4 22.6 5.59 32.8 4.18zm42.2-52.3-40.2-18-50.3 33.6 40.5 17.5zm-42.9-21.2-1.4-45.5-50.4 33.2 2.09 45.3zm-48.2-10.9 43.7-27.4 1.44 36.6-43.3 28.5zm21.4 9.48-0.913-12.4-13.7 8.84 0.487 12.7zm17.2-11.5v-7.63l-8.37 5.71 0.698 6.69zm64.6-28.6c-0.0943-0.0906-9.28 2.24-20.4 5.18l-20.2 5.34 15.5 8.72 6.51 18.5 9.4-18.8c5.17-10.3 9.32-18.9 9.23-18.9z" /><style>path{fill:#000}@media (prefers-color-scheme:dark){path{fill:#fff}}</style></svg>
