<?xml version="1.0" encoding="UTF-8"?>
<!-- Created with Inkscape (http://www.inkscape.org/) -->
<svg width="43.392mm" height="43.392mm" version="1.1" viewBox="0 0 43.392 43.392" xmlns="http://www.w3.org/2000/svg">
 <g transform="translate(-104.84 -148.5)">
  <g transform="matrix(.26458 0 0 .26458 104.84 148.5)">
   <rect width="164" height="164" fill="#fff"/>
   <g>
    <path d="m135.6 148h-7.2c-0.221 0-0.4-0.179-0.4-0.4v-3.2c0-0.221 0.179-0.4 0.4-0.4h3.2c0.221 0 0.4-0.179 0.4-0.4v-3.6h3.6c0.221 0 0.4-0.179 0.4-0.4v-3.6h3.6c0.221 0 0.4 0.179 0.4 0.4v3.2c0 0.221 0.179 0.4 0.4 0.4h3.2c0.221 0 0.4-0.179 0.4-0.4v-3.2c0-0.221 0.179-0.4 0.4-0.4h3.2c0.221 0 0.4 0.179 0.4 0.4v7.2c0 0.221-0.179 0.4-0.4 0.4h-11.2c-0.221 0-0.4 0.179-0.4 0.4v3.2c0 0.221-0.179 0.4-0.4 0.4zm-12 0h-3.2c-0.221 0-0.4-0.179-0.4-0.4v-3.6h3.6c0.221 0 0.4 0.179 0.4 0.4v3.2c0 0.221-0.179 0.4-0.4 0.4zm-8 0h-7.2c-0.221 0-0.4-0.179-0.4-0.4v-3.6h8v3.6c0 0.221-0.179 0.4-0.4 0.4zm-16 0h-19.2c-0.2209 0-0.4-0.179-0.4-0.4v-7.6h4v3.6c0 0.221 0.1791 0.4 0.4 0.4h7.2c0.2209 0 0.4-0.179 0.4-0.4v-3.2c0-0.221-0.1791-0.4-0.4-0.4h-7.6v-7.6c0-0.221 0.1791-0.4 0.4-0.4h3.6v3.6c0 0.221 0.1791 0.4 0.4 0.4h3.2c0.2209 0 0.4-0.179 0.4-0.4v-3.6h7.6c0.2209 0 0.4 0.179 0.4 0.4v3.2c0 0.221-0.1791 0.4-0.4 0.4h-3.2c-0.2209 0-0.4 0.179-0.4 0.4v7.2c0 0.221 0.1791 0.4 0.4 0.4h3.2c0.2209 0 0.4 0.179 0.4 0.4v3.2c0 0.221-0.1791 0.4-0.4 0.4zm-28 0h-11.2c-0.2209 0-0.4-0.179-0.4-0.4v-7.2c0-0.221 0.1791-0.4 0.4-0.4h3.6v3.6c0 0.221 0.1791 0.4 0.4 0.4h3.2c0.2209 0 0.4-0.179 0.4-0.4v-3.2c0-0.221-0.1791-0.4-0.4-0.4h-3.6v-4h8v3.6c0 0.221 0.1791 0.4 0.4 0.4h3.6v3.6c0 0.221-0.1791 0.4-0.4 0.4h-3.2c-0.2209 0-0.4 0.179-0.4 0.4v3.2c0 0.221-0.1791 0.4-0.4 0.4zm-16 0h-7.2c-0.2209 0-0.4-0.179-0.4-0.4v-7.2c0-0.221 0.1791-0.4 0.4-0.4h3.2c0.2209 0 0.4 0.179 0.4 0.4v3.2c0 0.221 0.1791 0.4 0.4 0.4h3.2c0.2209 0 0.4 0.179 0.4 0.4v3.2c0 0.221-0.1791 0.4-0.4 0.4zm-12 0h-27.2c-0.2209 0-0.4-0.179-0.4-0.4v-27.2c0-0.221 0.1791-0.4 0.4-0.4h27.2c0.2209 0 0.4 0.179 0.4 0.4v27.2c0 0.221-0.1791 0.4-0.4 0.4zm76-4h-3.6v-3.6c0-0.221-0.179-0.4-0.4-0.4h-3.2c-0.221 0-0.4-0.179-0.4-0.4v-7.2c0-0.221-0.179-0.4-0.4-0.4h-3.2c-0.221 0-0.4 0.179-0.4 0.4v11.6h-3.6c-0.221 0-0.4-0.179-0.4-0.4v-15.2c0-0.221 0.179-0.4 0.4-0.4h3.2c0.221 0 0.4-0.179 0.4-0.4v-15.6h7.6c0.221 0 0.4-0.179 0.4-0.4v-3.2c0-0.221-0.179-0.4-0.4-0.4h-7.6v-12h3.6c0.221 0 0.4-0.1791 0.4-0.4v-3.6h3.6c0.221 0 0.4 0.1791 0.4 0.4v3.2c0 0.2209 0.179 0.4 0.4 0.4h3.6v3.6c0 0.2209-0.179 0.4-0.4 0.4h-7.2c-0.221 0-0.4 0.179-0.4 0.4v3.2c0 0.221 0.179 0.4 0.4 0.4h7.2c0.221 0 0.4 0.179 0.4 0.4v3.2c0 0.221 0.179 0.4 0.4 0.4h3.6v3.6c0 0.221 0.179 0.4 0.4 0.4h11.6v3.6c0 0.221 0.179 0.4 0.4 0.4h3.2c0.221 0 0.4-0.179 0.4-0.4v-3.6h3.6c0.221 0 0.4 0.179 0.4 0.4v7.2c0 0.221-0.179 0.4-0.4 0.4h-7.2c-0.221 0-0.4 0.179-0.4 0.4v3.2c0 0.221 0.179 0.4 0.4 0.4h7.2c0.221 0 0.4 0.179 0.4 0.4v3.6h-7.6c-0.221 0-0.4 0.179-0.4 0.4v7.6h-4v-3.6c0-0.221-0.179-0.4-0.4-0.4h-11.2c-0.221 0-0.4 0.179-0.4 0.4v11.6zm-79.6-0.4v-19.2c0-0.221-0.1791-0.4-0.4-0.4h-19.2c-0.2209 0-0.4 0.179-0.4 0.4v19.2c0 0.221 0.1791 0.4 0.4 0.4h19.2c0.2209 0 0.4-0.179 0.4-0.4zm91.6-3.6h-3.2c-0.221 0-0.4-0.179-0.4-0.4v-3.2c0-0.221 0.179-0.4 0.4-0.4h3.6v4zm-52 0h-3.6v-3.6c0-0.221-0.1791-0.4-0.4-0.4h-3.6v-3.6c0-0.221-0.1791-0.4-0.4-0.4h-7.2c-0.2209 0-0.4 0.179-0.4 0.4v3.6h-3.6c-0.2209 0-0.4-0.179-0.4-0.4v-7.6h3.6c0.2209 0 0.4-0.179 0.4-0.4v-3.2c0-0.221 0.1791-0.4 0.4-0.4h3.2c0.2209 0 0.4 0.179 0.4 0.4v3.2c0 0.221 0.1791 0.4 0.4 0.4h3.2c0.2209 0 0.4-0.179 0.4-0.4v-3.2c0-0.221 0.1791-0.4 0.4-0.4h3.2c0.2209 0 0.4-0.179 0.4-0.4v-7.2c0-0.221-0.1791-0.4-0.4-0.4h-3.6v-7.6c0-0.221 0.1791-0.4 0.4-0.4h3.6v3.6c0 0.221 0.1791 0.4 0.4 0.4h3.2c0.2209 0 0.4-0.179 0.4-0.4v-3.2c0-0.221-0.1791-0.4-0.4-0.4h-3.6v-3.6c0-0.221-0.1791-0.4-0.4-0.4h-7.6v-4h7.6c0.2209 0 0.4-0.1791 0.4-0.4v-19.6h4v7.6c0 0.2209 0.1791 0.4 0.4 0.4h3.2c0.2209 0 0.4-0.1791 0.4-0.4v-3.2c0-0.2209 0.1791-0.4 0.4-0.4h3.2c0.2209 0 0.4 0.1791 0.4 0.4v7.2c0 0.2209-0.1791 0.4-0.4 0.4h-3.2c-0.2209 0-0.4 0.1791-0.4 0.4v3.6h-3.6c-0.2209 0-0.4 0.1791-0.4 0.4v7.2c0 0.221 0.1791 0.4 0.4 0.4h11.6v3.6c0 0.221 0.1791 0.4 0.4 0.4h3.2c0.2209 0 0.4 0.179 0.4 0.4v7.2c0 0.221-0.1791 0.4-0.4 0.4h-3.6v-3.6c0-0.221-0.1791-0.4-0.4-0.4h-7.2c-0.2209 0-0.4 0.179-0.4 0.4v3.2c0 0.221 0.1791 0.4 0.4 0.4h7.6v4h-3.6c-0.2209 0-0.4 0.179-0.4 0.4v3.2c0 0.221-0.1791 0.4-0.4 0.4h-3.2c-0.2209 0-0.4 0.179-0.4 0.4v3.2c0 0.221-0.1791 0.4-0.4 0.4h-7.2c-0.2209 0-0.4 0.179-0.4 0.4v3.2c0 0.221 0.1791 0.4 0.4 0.4h3.2c0.2209 0 0.4 0.179 0.4 0.4v7.6zm-44 0h-11.2c-0.2209 0-0.4-0.179-0.4-0.4v-11.2c0-0.221 0.1791-0.4 0.4-0.4h11.2c0.2209 0 0.4 0.179 0.4 0.4v11.2c0 0.221-0.1791 0.4-0.4 0.4zm16-4h-3.2c-0.2209 0-0.4-0.179-0.4-0.4v-7.2c0-0.221 0.1791-0.4 0.4-0.4h3.2c0.2209 0 0.4-0.179 0.4-0.4v-7.6h3.6c0.2209 0 0.4 0.179 0.4 0.4v3.2c0 0.221 0.1791 0.4 0.4 0.4h3.2c0.2209 0 0.4 0.179 0.4 0.4v3.6h-3.6c-0.2209 0-0.4 0.179-0.4 0.4v3.2c0 0.221-0.1791 0.4-0.4 0.4h-3.2c-0.2209 0-0.4 0.179-0.4 0.4v3.2c0 0.221-0.1791 0.4-0.4 0.4zm96-4h-3.2c-0.221 0-0.4-0.179-0.4-0.4v-3.6h3.6c0.221 0 0.4 0.179 0.4 0.4v3.2c0 0.221-0.179 0.4-0.4 0.4zm-56 0h-3.6v-3.6c0-0.221 0.1791-0.4 0.4-0.4h3.6v4zm36.4-4.4v-11.2c0-0.221-0.179-0.4-0.4-0.4h-11.2c-0.221 0-0.4 0.179-0.4 0.4v11.2c0 0.221 0.179 0.4 0.4 0.4h11.2c0.221 0 0.4-0.179 0.4-0.4zm-28.4 0.4h-7.6v-8h3.6c0.2209 0 0.4 0.179 0.4 0.4v3.2c0 0.221 0.1791 0.4 0.4 0.4h3.6v3.6c0 0.221-0.1791 0.4-0.4 0.4zm24-4h-3.2c-0.221 0-0.4-0.179-0.4-0.4v-3.2c0-0.221 0.179-0.4 0.4-0.4h3.2c0.221 0 0.4 0.179 0.4 0.4v3.2c0 0.221-0.179 0.4-0.4 0.4zm-20 0h-3.6v-3.6c0-0.221 0.179-0.4 0.4-0.4h3.2c0.221 0 0.4 0.179 0.4 0.4v3.2c0 0.221-0.179 0.4-0.4 0.4zm-32-4h-7.2c-0.2209 0-0.4-0.179-0.4-0.4v-3.2c0-0.221 0.1791-0.4 0.4-0.4h7.6v3.6c0 0.221-0.1791 0.4-0.4 0.4zm-20 0h-3.2c-0.2209 0-0.4-0.179-0.4-0.4v-7.2c0-0.221-0.1791-0.4-0.4-0.4h-3.6v-4h3.6c0.2209 0 0.4-0.179 0.4-0.4v-3.2c0-0.221 0.1791-0.4 0.4-0.4h7.6v3.6c0 0.221 0.1791 0.4 0.4 0.4h3.2c0.2209 0 0.4 0.179 0.4 0.4v3.2c0 0.221-0.1791 0.4-0.4 0.4h-3.2c-0.2209 0-0.4 0.179-0.4 0.4v3.2c0 0.221-0.1791 0.4-0.4 0.4h-3.2c-0.2209 0-0.4 0.179-0.4 0.4v3.6zm-8-4h-3.2c-0.2209 0-0.4-0.179-0.4-0.4v-3.6h4v3.6c0 0.221-0.1791 0.4-0.4 0.4zm-8 0h-19.2c-0.2209 0-0.4-0.179-0.4-0.4v-23.2c0-0.2209 0.1791-0.4 0.4-0.4h3.2c0.2209 0 0.4-0.1791 0.4-0.4v-3.2c0-0.2209-0.1791-0.4-0.4-0.4h-3.2c-0.2209 0-0.4-0.1791-0.4-0.4v-3.2c0-0.2209 0.1791-0.4 0.4-0.4h7.2c0.2209 0 0.4 0.1791 0.4 0.4v7.2c0 0.2209 0.1791 0.4 0.4 0.4h3.2c0.2209 0 0.4-0.1791 0.4-0.4v-7.2c0-0.2209 0.1791-0.4 0.4-0.4h3.2c0.2209 0 0.4 0.1791 0.4 0.4v7.2c0 0.2209 0.1791 0.4 0.4 0.4h3.2c0.2209 0 0.4 0.1791 0.4 0.4v3.6h-7.6c-0.2209 0-0.4 0.1791-0.4 0.4v3.2c0 0.2209 0.1791 0.4 0.4 0.4h7.6v7.6c0 0.221 0.1791 0.4 0.4 0.4h3.6v4h-3.6c-0.2209 0-0.4 0.179-0.4 0.4v3.2c0 0.221-0.1791 0.4-0.4 0.4zm104-4h-3.6v-3.6c0-0.221 0.179-0.4 0.4-0.4h3.6v4zm-32 0h-3.2c-0.221 0-0.4-0.179-0.4-0.4v-3.2c0-0.221 0.179-0.4 0.4-0.4h3.6v4zm-75.6-0.4v-7.2c0-0.221-0.1791-0.4-0.4-0.4h-7.2c-0.2209 0-0.4-0.179-0.4-0.4v-3.2c0-0.221-0.1791-0.4-0.4-0.4h-3.2c-0.2209 0-0.4 0.179-0.4 0.4v11.2c0 0.221 0.1791 0.4 0.4 0.4h3.2c0.2209 0 0.4-0.179 0.4-0.4v-3.2c0-0.221 0.1791-0.4 0.4-0.4h3.2c0.2209 0 0.4 0.179 0.4 0.4v3.2c0 0.221 0.1791 0.4 0.4 0.4h3.2c0.2209 0 0.4-0.179 0.4-0.4zm115.6-3.6h-7.6v-7.6c0-0.221 0.179-0.4 0.4-0.4h3.2c0.221 0 0.4 0.179 0.4 0.4v3.2c0 0.221 0.179 0.4 0.4 0.4h3.2c0.221 0 0.4 0.179 0.4 0.4v3.2c0 0.221-0.179 0.4-0.4 0.4zm-20 0h-3.6v-7.6c0-0.221 0.179-0.4 0.4-0.4h11.2c0.221 0 0.4 0.179 0.4 0.4v3.2c0 0.221-0.179 0.4-0.4 0.4h-7.2c-0.221 0-0.4 0.179-0.4 0.4v3.2c0 0.221-0.179 0.4-0.4 0.4zm-60 0h-3.2c-0.2209 0-0.4-0.179-0.4-0.4v-3.2c0-0.221 0.1791-0.4 0.4-0.4h3.6v3.6c0 0.221-0.1791 0.4-0.4 0.4zm-24 0h-3.6v-3.6c0-0.221 0.1791-0.4 0.4-0.4h3.2c0.2209 0 0.4 0.179 0.4 0.4v3.6zm52-4h-3.6v-3.6c0-0.221 0.1791-0.4 0.4-0.4h3.2c0.2209 0 0.4 0.179 0.4 0.4v3.2c0 0.221-0.1791 0.4-0.4 0.4zm-36 0h-3.6v-3.6c0-0.221 0.1791-0.4 0.4-0.4h3.2c0.2209 0 0.4 0.179 0.4 0.4v3.2c0 0.221-0.1791 0.4-0.4 0.4zm28-4h-3.2c-0.2209 0-0.4-0.1791-0.4-0.4v-3.6h3.6c0.2209 0 0.4 0.1791 0.4 0.4v3.2c0 0.2209-0.1791 0.4-0.4 0.4zm-20 0h-3.2c-0.2209 0-0.4-0.1791-0.4-0.4v-7.6h7.6c0.2209 0 0.4 0.1791 0.4 0.4v3.2c0 0.2209-0.1791 0.4-0.4 0.4h-3.2c-0.2209 0-0.4 0.1791-0.4 0.4v3.6zm-20 0h-11.6v-4h7.6c0.2209 0 0.4-0.1791 0.4-0.4v-3.2c0-0.2209-0.1791-0.4-0.4-0.4h-3.2c-0.2209 0-0.4-0.1791-0.4-0.4v-3.6h3.6c0.2209 0 0.4-0.1791 0.4-0.4v-3.6h3.6c0.2209 0 0.4 0.1791 0.4 0.4v15.2c0 0.2209-0.1791 0.4-0.4 0.4zm100-4h-11.2c-0.221 0-0.4-0.1791-0.4-0.4v-3.2c0-0.2209 0.179-0.4 0.4-0.4h7.2c0.221 0 0.4-0.1791 0.4-0.4v-3.2c0-0.2209-0.179-0.4-0.4-0.4h-3.2c-0.221 0-0.4-0.1791-0.4-0.4v-7.6h3.6c0.221 0 0.4-0.1791 0.4-0.4v-3.2c0-0.2209 0.179-0.4 0.4-0.4h3.2c0.221 0 0.4 0.1791 0.4 0.4v19.2c0 0.2209-0.179 0.4-0.4 0.4zm-20 0h-7.6v-3.6c0-0.2209 0.179-0.4 0.4-0.4h7.6v3.6c0 0.2209-0.179 0.4-0.4 0.4zm-20 0h-3.2c-0.221 0-0.4-0.1791-0.4-0.4v-3.2c0-0.2209 0.179-0.4 0.4-0.4h3.6v4zm-52 0h-3.2c-0.2209 0-0.4-0.1791-0.4-0.4v-3.2c0-0.2209 0.1791-0.4 0.4-0.4h3.6v3.6c0 0.2209-0.1791 0.4-0.4 0.4zm76-4h-3.6v-3.6c0-0.2209-0.179-0.4-0.4-0.4h-7.2c-0.221 0-0.4-0.1791-0.4-0.4v-3.2c0-0.2209-0.179-0.4-0.4-0.4h-7.2c-0.221 0-0.4-0.1791-0.4-0.4v-3.6h3.6c0.221 0 0.4-0.1791 0.4-0.4v-3.6h4v3.6c0 0.2209 0.179 0.4 0.4 0.4h7.2c0.221 0 0.4-0.1791 0.4-0.4v-3.6h3.6c0.221 0 0.4 0.1791 0.4 0.4v3.2c0 0.2209 0.179 0.4 0.4 0.4h3.6v3.6c0 0.2209-0.179 0.4-0.4 0.4h-3.2c-0.221 0-0.4 0.1791-0.4 0.4v7.2c0 0.2209-0.179 0.4-0.4 0.4zm-20 0h-3.6v-4h3.6c0.221 0 0.4 0.1791 0.4 0.4v3.6zm-16 0h-3.2c-0.2209 0-0.4-0.1791-0.4-0.4v-7.2c0-0.2209 0.1791-0.4 0.4-0.4h15.2c0.221 0 0.4 0.1791 0.4 0.4v3.6h-11.6c-0.2209 0-0.4 0.1791-0.4 0.4v3.2c0 0.2209-0.1791 0.4-0.4 0.4zm-32 0h-7.6v-7.6c0-0.2209 0.1791-0.4 0.4-0.4h11.6v3.6c0 0.2209-0.1791 0.4-0.4 0.4h-3.2c-0.2209 0-0.4 0.1791-0.4 0.4v3.6zm-24-4h-3.2c-0.2209 0-0.4-0.1791-0.4-0.4v-3.2c0-0.2209 0.1791-0.4 0.4-0.4h3.6v4zm32-4h-3.6v-3.6c0-0.2209 0.1791-0.4 0.4-0.4h3.6v3.6c0 0.2209-0.1791 0.4-0.4 0.4zm-28 0h-3.6v-3.6c0-0.2209 0.1791-0.4 0.4-0.4h3.6v4zm96-4h-3.6v-3.6c0-0.2209 0.179-0.4 0.4-0.4h3.2c0.221 0 0.4 0.1791 0.4 0.4v3.6zm-28 0h-3.2c-0.221 0-0.4-0.1791-0.4-0.4v-3.6h4v4zm-12 0h-11.2c-0.2209 0-0.4-0.1791-0.4-0.4v-3.2c0-0.2209-0.1791-0.4-0.4-0.4h-3.6v-4h7.6c0.2209 0 0.4-0.1791 0.4-0.4v-3.2c0-0.2209 0.1791-0.4 0.4-0.4h3.2c0.2209 0 0.4 0.1791 0.4 0.4v3.2c0 0.2209 0.1791 0.4 0.4 0.4h11.6v4h-7.6c-0.221 0-0.4 0.1791-0.4 0.4v3.2c0 0.2209-0.1791 0.4-0.4 0.4zm-16 0h-3.6v-4h4v3.6c0 0.2209-0.1791 0.4-0.4 0.4zm-8 0h-3.6v-11.6c0-0.2209 0.1791-0.4 0.4-0.4h3.2c0.2209 0 0.4 0.1791 0.4 0.4v3.2c0 0.2209 0.1791 0.4 0.4 0.4h3.6v4h-3.6c-0.2209 0-0.4 0.1791-0.4 0.4v3.6zm-12 0h-3.2c-0.2209 0-0.4-0.1791-0.4-0.4v-7.2c0-0.2209 0.1791-0.4 0.4-0.4h7.2c0.2209 0 0.4 0.1791 0.4 0.4v3.2c0 0.2209-0.1791 0.4-0.4 0.4h-3.2c-0.2209 0-0.4 0.1791-0.4 0.4v3.2c0 0.2209-0.1791 0.4-0.4 0.4zm-12 0h-7.6v-4h7.6c0.2209 0 0.4 0.1791 0.4 0.4v3.2c0 0.2209-0.1791 0.4-0.4 0.4zm-16 0h-3.2c-0.2209 0-0.4-0.1791-0.4-0.4v-3.2c0-0.2209 0.1791-0.4 0.4-0.4h3.2c0.2209 0 0.4 0.1791 0.4 0.4v3.2c0 0.2209-0.1791 0.4-0.4 0.4zm-12 0h-7.2c-0.2209 0-0.4-0.1791-0.4-0.4v-11.2c0-0.2209 0.1791-0.4 0.4-0.4h3.6v7.6c0 0.2209 0.1791 0.4 0.4 0.4h3.2c0.2209 0 0.4 0.1791 0.4 0.4v3.2c0 0.2209-0.1791 0.4-0.4 0.4zm104-4h-7.6v-4h7.6c0.221 0 0.4 0.1791 0.4 0.4v3.6zm-12 0h-3.6v-4h4v4zm-72 0h-3.2c-0.2209 0-0.4-0.1791-0.4-0.4v-3.2c0-0.2209 0.1791-0.4 0.4-0.4h3.6v4zm76-4h-3.6v-3.6c0-0.2209 0.179-0.4 0.4-0.4h3.6v4zm-8 0h-3.6v-3.6c0-0.2209 0.179-0.4 0.4-0.4h3.2c0.221 0 0.4 0.1791 0.4 0.4v3.6zm-28 0h-3.6v-3.6c0-0.2209 0.1791-0.4 0.4-0.4h3.2c0.2209 0 0.4 0.1791 0.4 0.4v3.6zm-28 0h-11.6v-4h7.6c0.2209 0 0.4-0.1791 0.4-0.4v-3.2c0-0.2209-0.1791-0.4-0.4-0.4h-3.2c-0.2209 0-0.4-0.1791-0.4-0.4v-7.2c0-0.2209-0.1791-0.4-0.4-0.4h-3.6v-4h7.6c0.2209 0 0.4-0.1791 0.4-0.4v-3.6h3.6c0.2209 0 0.4-0.1791 0.4-0.4v-11.6h4v7.6c0 0.2209 0.1791 0.4 0.4 0.4h3.6v8h-7.6c-0.2209 0-0.4 0.1791-0.4 0.4v3.6h-3.6c-0.2209 0-0.4 0.1791-0.4 0.4v3.2c0 0.2209 0.1791 0.4 0.4 0.4h3.2c0.2209 0 0.4-0.1791 0.4-0.4v-3.6h8v3.6c0 0.2209 0.1791 0.4 0.4 0.4h3.2c0.2209 0 0.4 0.1791 0.4 0.4v7.2c0 0.2209-0.1791 0.4-0.4 0.4h-7.2c-0.2209 0-0.4-0.1791-0.4-0.4v-3.2c0-0.2209-0.1791-0.4-0.4-0.4h-3.2c-0.2209 0-0.4 0.1791-0.4 0.4v7.2c0 0.2209-0.1791 0.4-0.4 0.4zm92-4h-7.2c-0.221 0-0.4-0.1791-0.4-0.4v-3.6h7.6c0.221 0 0.4 0.1791 0.4 0.4v3.2c0 0.2209-0.179 0.4-0.4 0.4zm-20 0h-7.6v-3.6c0-0.2209-0.179-0.4-0.4-0.4h-7.2c-0.221 0-0.4-0.1791-0.4-0.4v-3.2c0-0.2209-0.179-0.4-0.4-0.4h-3.2c-0.221 0-0.4-0.1791-0.4-0.4v-3.2c0-0.2209-0.179-0.4-0.4-0.4h-3.6v-3.6c0-0.2209 0.179-0.4 0.4-0.4h7.6v3.6c0 0.2209 0.179 0.4 0.4 0.4h3.2c0.221 0 0.4 0.1791 0.4 0.4v3.2c0 0.2209 0.179 0.4 0.4 0.4h3.2c0.221 0 0.4-0.1791 0.4-0.4v-3.2c0-0.2209 0.179-0.4 0.4-0.4h3.2c0.221 0 0.4-0.1791 0.4-0.4v-3.6h7.6c0.221 0 0.4 0.1791 0.4 0.4v7.6h-3.6c-0.221 0-0.4 0.1791-0.4 0.4v7.2c0 0.2209-0.179 0.4-0.4 0.4zm-84 0h-7.2c-0.2209 0-0.4-0.1791-0.4-0.4v-3.2c0-0.2209 0.1791-0.4 0.4-0.4h7.2c0.2209 0 0.4 0.1791 0.4 0.4v3.6zm-16 0h-7.6v-4h3.6c0.2209 0 0.4-0.1791 0.4-0.4v-3.2c0-0.2209-0.1791-0.4-0.4-0.4h-3.6v-3.6c0-0.2209-0.1791-0.4-0.4-0.4h-3.2c-0.2209 0-0.4-0.1791-0.4-0.4v-7.2c0-0.2209 0.1791-0.4 0.4-0.4h7.2c0.2209 0 0.4 0.1791 0.4 0.4v3.2c0 0.2209 0.1791 0.4 0.4 0.4h3.2c0.2209 0 0.4-0.1791 0.4-0.4v-3.2c0-0.2209 0.1791-0.4 0.4-0.4h7.2c0.2209 0 0.4 0.1791 0.4 0.4v7.2c0 0.2209 0.1791 0.4 0.4 0.4h7.6v3.6c0 0.2209-0.1791 0.4-0.4 0.4h-15.2c-0.2209 0-0.4 0.1791-0.4 0.4v7.2c0 0.2209-0.1791 0.4-0.4 0.4zm112-4h-7.2c-0.221 0-0.4-0.1791-0.4-0.4v-3.6h8v4zm-40 0h-7.2c-0.2209 0-0.4-0.1791-0.4-0.4v-3.2c0-0.2209 0.1791-0.4 0.4-0.4h7.6v3.6c0 0.2209-0.1791 0.4-0.4 0.4zm-12 0h-3.2c-0.2209 0-0.4-0.1791-0.4-0.4v-3.6h3.6c0.2209 0 0.4 0.1791 0.4 0.4v3.2c0 0.2209-0.1791 0.4-0.4 0.4zm-8 0h-7.2c-0.2209 0-0.4-0.1791-0.4-0.4v-7.2c0-0.2209-0.1791-0.4-0.4-0.4h-7.6v-4h7.6c0.2209 0 0.4-0.1791 0.4-0.4v-3.2c0-0.2209-0.1791-0.4-0.4-0.4h-3.2c-0.2209 0-0.4-0.1791-0.4-0.4v-3.6h3.6c0.2209 0 0.4-0.1791 0.4-0.4v-7.2c0-0.2209 0.1791-0.4 0.4-0.4h3.2c0.2209 0 0.4 0.1791 0.4 0.4v11.2c0 0.2209 0.1791 0.4 0.4 0.4h3.6v7.6c0 0.2209 0.1791 0.4 0.4 0.4h3.2c0.2209 0 0.4 0.1791 0.4 0.4v3.6h-3.6c-0.2209 0-0.4 0.1791-0.4 0.4v3.2c0 0.2209-0.1791 0.4-0.4 0.4zm-60 0h-3.2c-0.2209 0-0.4-0.1791-0.4-0.4v-3.2c0-0.2209 0.1791-0.4 0.4-0.4h3.6v4zm128-4h-7.6v-3.6c0-0.2209-0.179-0.4-0.4-0.4h-3.2c-0.221 0-0.4-0.1791-0.4-0.4v-3.2c0-0.2209 0.179-0.4 0.4-0.4h7.6v3.6c0 0.2209 0.179 0.4 0.4 0.4h3.2c0.221 0 0.4 0.1791 0.4 0.4v3.2c0 0.2209-0.179 0.4-0.4 0.4zm-44 0h-3.6v-3.6c0-0.2209 0.179-0.4 0.4-0.4h3.6v3.6c0 0.2209-0.179 0.4-0.4 0.4zm-8-4h-7.2c-0.2209 0-0.4-0.1791-0.4-0.4v-3.6h3.6c0.2209 0 0.4-0.1791 0.4-0.4v-7.6h4v3.6c0 0.2209 0.1791 0.4 0.4 0.4h3.2c0.2209 0 0.4 0.1791 0.4 0.4v3.2c0 0.2209-0.1791 0.4-0.4 0.4h-3.2c-0.2209 0-0.4 0.1791-0.4 0.4v3.2c0 0.2209-0.1791 0.4-0.4 0.4zm52-4h-3.6v-3.6c0-0.2209 0.179-0.4 0.4-0.4h3.2c0.221 0 0.4 0.1791 0.4 0.4v3.2c0 0.2209-0.179 0.4-0.4 0.4zm-24 0h-3.2c-0.221 0-0.4-0.1791-0.4-0.4v-3.2c0-0.2209 0.179-0.4 0.4-0.4h3.2c0.221 0 0.4 0.1791 0.4 0.4v3.6zm-8 0h-3.6v-12h3.6c0.221 0 0.4 0.1791 0.4 0.4v11.2c0 0.2209-0.179 0.4-0.4 0.4zm-28 0h-3.2c-0.2209 0-0.4-0.1791-0.4-0.4v-3.6h3.6c0.2209 0 0.4 0.1791 0.4 0.4v3.6zm-44 0h-3.2c-0.2209 0-0.4-0.1791-0.4-0.4v-3.2c0-0.2209 0.1791-0.4 0.4-0.4h3.2c0.2209 0 0.4 0.1791 0.4 0.4v3.6zm40-4h-3.6v-20h11.6c0.2209 0 0.4-0.1791 0.4-0.4v-3.2c0-0.2209-0.1791-0.4-0.4-0.4h-11.6v-3.6c0-0.2209 0.1791-0.4 0.4-0.4h3.2c0.2209 0 0.4-0.1791 0.4-0.4v-3.2c0-0.2209 0.1791-0.4 0.4-0.4h7.2c0.2209 0 0.4 0.1791 0.4 0.4v3.2c0 0.2209 0.1791 0.4 0.4 0.4h3.2c0.2209 0 0.4 0.1791 0.4 0.4v7.2c0 0.2209 0.1791 0.4 0.4 0.4h3.2c0.2209 0 0.4-0.1791 0.4-0.4v-7.2c0-0.2209 0.179-0.4 0.4-0.4h3.2c0.221 0 0.4-0.1791 0.4-0.4v-3.2c0-0.2209 0.179-0.4 0.4-0.4h3.2c0.221 0 0.4 0.1791 0.4 0.4v7.2c0 0.2209-0.179 0.4-0.4 0.4h-3.2c-0.221 0-0.4 0.1791-0.4 0.4v7.2c0 0.2209 0.179 0.4 0.4 0.4h3.6v3.6c0 0.2209 0.179 0.4 0.4 0.4h3.2c0.221 0 0.4 0.1791 0.4 0.4v3.6h-3.6c-0.221 0-0.4 0.1791-0.4 0.4v3.2c0 0.2209-0.179 0.4-0.4 0.4h-3.2c-0.221 0-0.4-0.1791-0.4-0.4v-3.2c0-0.2209-0.179-0.4-0.4-0.4h-3.6v-7.6c0-0.2209-0.1791-0.4-0.4-0.4h-3.2c-0.2209 0-0.4 0.1791-0.4 0.4v3.2c0 0.2209-0.1791 0.4-0.4 0.4h-7.6v-3.6c0-0.2209-0.1791-0.4-0.4-0.4h-3.2c-0.2209 0-0.4 0.1791-0.4 0.4v3.2c0 0.2209 0.1791 0.4 0.4 0.4h3.6v4h-3.6c-0.2209 0-0.4 0.1791-0.4 0.4v7.6zm-32 0h-3.2c-0.2209 0-0.4-0.1791-0.4-0.4v-7.2c0-0.2209 0.1791-0.4 0.4-0.4h3.2c0.2209 0 0.4 0.1791 0.4 0.4v7.6zm96-4h-27.2c-0.221 0-0.4-0.1791-0.4-0.4v-27.2c0-0.2209 0.179-0.4 0.4-0.4h27.2c0.221 0 0.4 0.1791 0.4 0.4v27.2c0 0.2209-0.179 0.4-0.4 0.4zm-48 0h-3.6v-3.6c0-0.2209 0.1791-0.4 0.4-0.4h3.6v3.6c0 0.2209-0.1791 0.4-0.4 0.4zm-8 0h-3.2c-0.2209 0-0.4-0.1791-0.4-0.4v-3.6h3.6c0.2209 0 0.4 0.1791 0.4 0.4v3.6zm-24 0h-3.6v-8h3.6c0.2209 0 0.4 0.1791 0.4 0.4v7.6zm-24 0h-27.2c-0.2209 0-0.4-0.1791-0.4-0.4v-27.2c0-0.2209 0.1791-0.4 0.4-0.4h27.2c0.2209 0 0.4 0.1791 0.4 0.4v27.2c0 0.2209-0.1791 0.4-0.4 0.4zm100.4-4.4v-19.2c0-0.2209-0.179-0.4-0.4-0.4h-19.2c-0.221 0-0.4 0.1791-0.4 0.4v19.2c0 0.2209 0.179 0.4 0.4 0.4h19.2c0.221 0 0.4-0.1791 0.4-0.4zm-104 0v-19.2c0-0.2209-0.1791-0.4-0.4-0.4h-19.2c-0.2209 0-0.4 0.1791-0.4 0.4v19.2c0 0.2209 0.1791 0.4 0.4 0.4h19.2c0.2209 0 0.4-0.1791 0.4-0.4zm99.6-3.6h-11.2c-0.221 0-0.4-0.1791-0.4-0.4v-11.2c0-0.2209 0.179-0.4 0.4-0.4h11.2c0.221 0 0.4 0.1791 0.4 0.4v11.2c0 0.2209-0.179 0.4-0.4 0.4zm-76 0h-3.6v-3.6c0-0.2209 0.1791-0.4 0.4-0.4h3.6v4zm-8 0h-3.2c-0.2209 0-0.4-0.1791-0.4-0.4v-3.2c0-0.2209 0.1791-0.4 0.4-0.4h3.2c0.2209 0 0.4 0.1791 0.4 0.4v3.6zm-20 0h-11.2c-0.2209 0-0.4-0.1791-0.4-0.4v-11.2c0-0.2209 0.1791-0.4 0.4-0.4h11.2c0.2209 0 0.4 0.1791 0.4 0.4v11.2c0 0.2209-0.1791 0.4-0.4 0.4zm80-4h-7.6v-3.6c0-0.2209 0.179-0.4 0.4-0.4h7.2c0.221 0 0.4 0.1791 0.4 0.4v3.2c0 0.2209-0.179 0.4-0.4 0.4zm-44 0h-7.6v-7.6c0-0.2209 0.1791-0.4 0.4-0.4h7.2c0.2209 0 0.4-0.1791 0.4-0.4v-3.6h3.6c0.2209 0 0.4 0.1791 0.4 0.4v3.2c0 0.2209 0.1791 0.4 0.4 0.4h3.6v4h-7.6c-0.2209 0-0.4 0.1791-0.4 0.4v3.2c0 0.2209-0.1791 0.4-0.4 0.4zm-12-4h-3.2c-0.2209 0-0.4-0.1791-0.4-0.4v-3.2c0-0.2209-0.1791-0.4-0.4-0.4h-3.2c-0.2209 0-0.4-0.1791-0.4-0.4v-3.6h8v7.6c0 0.2209-0.1791 0.4-0.4 0.4zm12-8h-11.6v-3.6c0-0.2209 0.1791-0.4 0.4-0.4h11.2c0.2209 0 0.4 0.1791 0.4 0.4v3.6zm-20 0h-3.2c-0.2209 0-0.4-0.1791-0.4-0.4v-3.2c0-0.2209 0.1791-0.4 0.4-0.4h3.2c0.2209 0 0.4 0.1791 0.4 0.4v3.6z"/>
   </g>
  </g>
 </g>
</svg>
